<?xml version="1.0" encoding="utf-8"?>
<!-- Generator: Adobe Illustrator 23.0.1, SVG Export Plug-In . SVG Version: 6.00 Build 0)  -->
<svg version="1.1" id="Livello_1" xmlns="http://www.w3.org/2000/svg" xmlns:xlink="http://www.w3.org/1999/xlink" x="0px" y="0px"
	 viewBox="0 0 980 902.7" style="enable-background:new 0 0 980 902.7;" xml:space="preserve">
<style type="text/css">
	.st0{fill:#FFFFFF;}
</style>
<g>
	<g>
		<path class="st0" d="M980,545.3c0-83-32.4-146.2-113.3-193.7c-2,22-8.6,50.7-15.1,66.6c-122.8,299.6-500,255.5-502.2,257.5
			c60.8,74.2,160.2,121.1,284.9,121.1c6.8,0,12.5,0.1,17.9,0.1c12.7,0,22.9-0.3,38.2-2.5c14.8,18,97.8,97,165.3,108.1
			c0-0.1,0.1-0.1,0.3-0.1c0.9,0,3.5,0.3,5.2,0.3c10.9,0,19.6-8.8,19.6-19.6c0-2.7-0.7-5.4-1.6-7.7h0.1
			c-12.7-21.9-32.7-85.9-32.7-124.6c0-0.6-0.2-1-0.2-1.5C937.7,702.5,980,634.4,980,545.3z"/>
		<path class="st0" d="M406.6,611.3c220.8,0,392-126.1,389.4-313.3C796,132.3,620.8,0,399.9,0C179.1,0,0,132.3,0,298
			c0,103.2,50.6,213.2,156.3,267.2c0,0.7-0.2,1.1-0.2,1.8c0,44.8-37.3,106.4-52.1,131.7h0.1c-1.2,2.7-1.9,5.7-1.9,8.9
			c0,12.5,10.1,22.7,22.7,22.7c1.9,0,4.8-0.4,5.9-0.4c0.3,0,0.4,0,0.4,0.1c78.1-12.8,193.4-100.7,210.5-121.5
			c17.5,2.6,29.4,3.1,44.1,3.1C392.1,611.5,398.8,611.3,406.6,611.3z"/>
	</g>
</g>
</svg>
