<?xml version="1.0" encoding="utf-8"?>
<!-- Generator: Adobe Illustrator 23.0.1, SVG Export Plug-In . SVG Version: 6.00 Build 0)  -->
<svg version="1.1" id="Livello_1" xmlns="http://www.w3.org/2000/svg" xmlns:xlink="http://www.w3.org/1999/xlink" x="0px" y="0px"
	 viewBox="0 0 452.6 452.7" style="enable-background:new 0 0 452.6 452.7;" xml:space="preserve">
<style type="text/css">
	.st0{fill:#FFFFFF;}
</style>
<g>
	<path class="st0" d="M226,452.7C101.2,452.4-0.2,350.7,0,225.9C0.2,100.7,101.9-0.4,227.1,0c124.8,0.4,225.7,101.7,225.5,226.5
		C452.4,351.4,350.7,452.9,226,452.7z M242.1,146.9c-4.9,0-9.6,1-13.6-0.2c-6.4-1.9-12-0.7-17.9,1.5c-5.9,2.1-12.1,5.4-18,5
		c-7.4-0.5-11.4,2.6-14.5,8c-5.3,9.5-11.1,18.2-21.3,23.3c-2.6,1.3-4.4,4.4-6.1,7c-5.2,7.6-4.2,16.5-5,25
		c-0.8,8.1,1.3,14.9,5.3,21.8c6.6,11.4,16.2,19.7,26.6,27.4c3.6,2.7,6.7,3.8,10.9,2.3c8.4-3.1,16.8-6,25.3-9c2.7-1,4.9-1.7,5.7,2.6
		c0.9,5.1,3.8,6.3,8.9,4.7c3.1-0.9,6.2-1.7,9.7-2.7c0.8,7.7,1.3,14.5,2.2,21.2c0.3,2.3,1,5.5,2.6,6.5c6.1,4,8.4,9.5,8.5,16.4
		c0,1,0.3,2,0.8,2.9c4.1,7,2.6,13.7-0.9,20.3c-0.7,1.3-1.2,2.7-1.6,4.2c-1.1,4.6-2.3,9.3,1,13.4c4,5.1,7,10.6,9.5,16.7
		c2.8,6.9,5.4,13.6,5,21.1c-0.1,2.1,0,4.2,0,7.2c8.3-1.5,16-2.1,23.1-4.6c6.1-2.1,12-5.8,17.1-9.7c5-3.9,9.2-8.9,13.6-13.6
		c1.2-1.3,2.9-3.4,2.6-4.8c-1.4-7.3,1.5-12.9,6.2-18c2.3-2.4,4.2-5.2,6.6-7.4c6.8-6.4,10.2-13.6,7.6-23.2c-1-3.6-1.9-8.1-0.6-11.2
		c2.7-6.7,6.4-13.2,10.6-19.1c5.9-8.2,12.9-15.6,19-23.7c2-2.7,2.7-6.4,4.4-10.5c-3.2,0.4-5.1,0.3-6.7,0.8c-5.5,1.8-9.3,0.6-12-4.9
		c-2.1-4.1-5.3-7.7-8-11.4c-5.2-7.1-10.5-14.1-12.6-23c-1.1-4.7-3.2-9.1-4.9-13.6c-4.9-13.2-14.4-21.1-27.9-24.5
		c-6.3-1.6-12.4-3.6-18.6-5.3c-1.2-0.3-2.8-0.5-3.7,0.1c-9.3,5.1-18.8,3.2-28.2,0.7c-4-1-6.9-3.3-7.4-8.3
		C244.8,154.4,243.2,150.6,242.1,146.9z M340.7,130.2c-3.1-0.3-5.9-0.6-8.7-0.9c-9.2-1-18.2-1.5-26.4,4.2c-3.4,2.3-4.7,4.9-2.8,8.3
		c2.2,4.1,4.8,8,7.5,11.7c4.8,6.7,4.8,6.6,11.6,2.5c1.2-0.7,2.5-1.3,3.9-2.1c0.3,5.7,0.7,11,1,16.3c-1.9,0.5-3.6,1-5.4,1.5
		c10.1,14.8,20,29.1,29.6,43.6c2,3.1,3.3,6.8,4.3,10.4c1.5,5.6,4.4,7.8,10.2,6.6c2.9-0.6,5.8-1.6,8.3-3.2c6.8-4.2,13.4-8.7,20-13.2
		c6.3-4.2,6.3-4.6,2-11.1c-1.1-1.7-2-3.5-3.2-5.1c-0.7-0.9-1.9-1.9-3-2.1c-10.6-1.6-14.9-5.6-17.2-16.6c0.9,0.3,1.8,0.5,2.4,0.9
		c8.1,6.2,17.6,9.4,26.5,13.8c13.2,6.4,23.9,16.3,27.1,31.9c0.4,2.1,1.5,4,2.4,6c0.4,0.9,1.1,1.6,1.7,2.4c0.6-0.1,1.2-0.3,1.8-0.4
		c-1-14.1-0.9-28.3-3.3-42.2c-10.2-59.7-40.8-106.5-90.8-140.6c-3-2-5.2-2.5-8.4-0.4c-4.2,2.8-11.6,0.7-13.4-3.9
		c-2.8-7.3-8.4-8.3-15-8.3c-10.8,0-21.5-0.4-32.3-0.6c-1.8,0-3.8-0.2-5.4,0.3c-9.5,3-19,5.9-28.4,9.3c-5.7,2.1-9.5,9.2-8.1,14.1
		c0.2,0,0.3,0.2,0.5,0.1c10.1-1.4,9.7-1.2,15.1,7.8c1.5,2.5,6.3,3.5,9.8,4.2c1.2,0.3,3.2-2,4.4-3.5c2.2-2.8,4.1-6,6.4-9.4
		c1.1,2,1.9,3.4,2.6,4.8c2.8,5.9,2.4,11.5-1,14.2c-6.5,5.4-9.5,5.3-16.5-0.2c-0.9-0.7-1.8-1.5-2.7-2.2c-6.3-5.2-9.3-5.6-15.2,0.1
		c-7.8,7.5-16.5,13.2-26.8,16.7c-4.4,1.5-5.3,5-3.7,9.3c0.5,1.5,0.5,4.2-0.5,5c-2.9,2.4-6.2,4.8-9.7,6.1c-4.4,1.6-9.2,2.1-14.9,3.4
		c0,6.8-0.2,13.3,0.1,19.8c0.1,1.4,1.7,3.6,3,4c4.3,1.2,8.8,1.8,13.2,2.4c4.9,0.6,8.9-1.1,11.6-5.3c5.4-8.2,12-14.7,20.9-19.2
		c6.8-3.5,15.4-3.6,20.5,1.5c1.3,1.3,2.2,3.4,3.6,3.9c4,1.3,5.9,3.6,5.6,8.1c3.6-0.2,6.7-0.5,9.9-0.7c0.2-0.5,0.4-1,0.5-1.4
		c-4-4.1-8.2-8.1-12-12.5c-1.6-1.9-2.1-4.6-3.2-6.9c0.4-0.3,0.9-0.6,1.3-0.9c4.9,2.7,9.8,5.5,14.7,8.2c4.3,2.3,7.3,5.5,8.8,10.2
		c0.9,2.8,2.8,5.4,4.2,8c0.5,0.2,1.1,0.4,1.6,0.6c-1.8-6.7,2.1-5.7,5.5-6c4.4-0.4,8.9-1,13-2.4c1.5-0.5,3.4-3.5,3.2-5.1
		c-0.8-6.2,2.5-9.3,7.4-11.6c2.9-1.4,5.9-2.3,8.7-3.8c3.8-2.1,7.4-2.4,11.4-0.3c-1.7,2-3.2,3.8-4.9,5.7
		C340.7,121.4,342.4,123,340.7,130.2z M24.7,272.2c0.1,1.3,0.1,2,0.2,2.8c9.6,39.5,29.3,73.2,58.6,101.3c2.9,2.7,14.4,0.3,16.1-3.3
		c0.4-0.8,0.2-2-0.2-2.8c-3.1-5.7-1.3-11.3,0.4-16.8c1.2-3.8,3.1-7.5,3.6-11.4c0.4-2.8,0.1-7.3-1.6-8.7c-4.9-3.8-10.4-7.1-16.2-9.3
		c-9.4-3.5-17.4-7.8-21.2-17.9c-1.5-4.1-4-8.2-7-11.2c-4.3-4.3-9.3-7.8-14.4-11.2C37.4,279.6,31.2,276.1,24.7,272.2z M20.8,219.1
		c0.5-4.1,1.1-8.2,1.6-12.3c1-8.5,0.8-17.3,5.4-25c5.8-9.9,11.9-19.6,17.9-29.4c0.9-1.5,1.5-3.3,2.8-6.2c-3.2,1.1-5,1.7-8,2.8
		c2-2.5,3-4.5,4.5-5.7c4.3-3.4,8.6-6.8,13.3-9.6c5.8-3.5,6.9-7.7,4.5-14.5c-1.7-4.9-5.6-9.3-0.4-15.7C44.1,112,15.9,191,20.8,219.1z
		 M84.8,77.4c4.1,1,7.5,2,11,2.7c1.5,0.3,3.3,0.3,4.8-0.2c8.6-3.2,13.6-10.6,19.6-16.9c8.1-8.5,14.7-18.5,26.1-23.5
		c2.2-1,3.7-3.6,5.6-5.4c-0.3-0.3-0.6-0.6-0.9-0.9c-23.7,9.3-45,22.6-63.9,39.9C85.8,74.1,85.5,76.1,84.8,77.4z M371.1,314.5
		c-0.5-0.1-1-0.2-1.6-0.3c-0.5,0.8-1.2,1.5-1.6,2.4c-2.3,5.1-5.3,9.4-10.8,11.7c-1.7,0.7-3.2,2.9-3.9,4.8c-2,5.2-3.8,10.6-5.2,16.1
		c-0.7,2.8-0.6,5.9-0.1,8.7c0.4,2.4,2.3,3.3,4.5,1.5c5.6-4.7,11.6-9.2,13.9-16.6c1.5-4.9,3-9.9,3.9-15
		C370.9,323.4,370.8,318.9,371.1,314.5z M209.4,84.5c-4-5-8.3-9.7-11.8-14.9c-2.4-3.6-4.6-4.5-7.8-1.6c-1.3,1.2-2.5,3-2.7,4.6
		c-0.4,3.2-0.1,6.5-0.1,10.3c-2.8-0.9-5-1.5-7-2.2c-4.5,6.6-4.4,7.3,1,12c1.8-2.1,3.7-4.2,5.7-6.4c0.2,2,0.5,3.9,0.8,6.3
		C195.3,90.6,203.7,91.7,209.4,84.5z"/>
</g>
</svg>
